<?xml version="1.0" encoding="utf-8"?>
<!-- Generator: Adobe Illustrator 19.1.0, SVG Export Plug-In . SVG Version: 6.00 Build 0)  -->
<svg version="1.1" id="Layer_1" xmlns="http://www.w3.org/2000/svg" xmlns:xlink="http://www.w3.org/1999/xlink" x="0px" y="0px"
	 viewBox="0 0 424.1 148" style="enable-background:new 0 0 424.1 148;" xml:space="preserve">
<style type="text/css">
	.st0{fill-rule:evenodd;clip-rule:evenodd;fill:rgb(41, 49, 158);stroke:;stroke-width:3;stroke-miterlimit:10;}
	.st1{fill-rule:evenodd;clip-rule:evenodd;fill:#FFFFFF;}
	.st2{fill-rule:evenodd;clip-rule:evenodd;fill:rgb(41, 49, 158);}
	.st3{fill-rule:evenodd;clip-rule:evenodd;fill:rgb(41, 49, 158);}
</style>
<path class="st0" d="M422.6,126.4c0,11.1-9,20.1-20.1,20.1H21.6c-11.1,0-20.1-9-20.1-20.1V21.6c0-11.1,9-20.1,20.1-20.1h380.9
	c11.1,0,20.1,9,20.1,20.1V126.4z"/>
<path class="st1" d="M149.1,1.5H21.6c-11.1,0-20.1,9-20.1,20.1v104.9c0,11.1,9,20.1,20.1,20.1h127.5V1.5z"/>
<path class="st2" d="M71.5,46.6l-6.3,8.6c-3.1,4.3-2.2,12,2.1,15.1L79,78.7c2,1.4,2.2,2.9,1.2,4.4l1.7,1.3l5.9-8.2
	c3.6-5,3.3-11.9-2.1-15.8l-11.7-8.5c-1.4-1-1.5-2.5-0.8-4.1L71.5,46.6L71.5,46.6z"/>
<path class="st2" d="M81.5,8.4l-9.8,13.5c-4.6,6.3-2.9,17.1,3.3,21.7l16.1,11.8c3.3,2.4,3.7,8.5,1.3,11.6l1.4,1l11.1-15.6
	c5-7,4.7-17.3-3.1-23L84.6,17c-2.4-1.7-3.6-4.7-1.6-7.5L81.5,8.4L81.5,8.4z"/>
<path class="st2" d="M55.8,93.1h12.9l2.3,7.8c7,0,14.1,0,21.1,0l2.3-7.8h12.9l-1.7-5.8c-16.1,0-32.2,0-48.2,0L55.8,93.1L55.8,93.1z"
	/>
<path class="st3" d="M122.6,133.3c0-0.1,0-0.2,0-0.3c0-0.1-0.1-0.2-0.2-0.3c-0.1-0.1-0.2-0.1-0.3-0.2c-0.1-0.1-0.3-0.1-0.5-0.2
	c-0.2-0.1-0.3-0.1-0.4-0.2c-0.1,0-0.2-0.1-0.2-0.1c-0.1-0.1-0.1-0.1-0.1-0.2c0-0.1,0-0.1,0-0.2c0-0.1,0-0.1,0-0.2
	c0-0.1,0.1-0.1,0.1-0.1c0.1,0,0.1-0.1,0.2-0.1c0.1,0,0.2,0,0.3,0c0.2,0,0.3,0,0.4,0.1s0.2,0.1,0.4,0.2l0.2-0.3
	c-0.1-0.1-0.3-0.2-0.4-0.3c-0.2-0.1-0.3-0.1-0.6-0.1c-0.2,0-0.3,0-0.4,0.1c-0.1,0-0.2,0.1-0.3,0.2c-0.1,0.1-0.2,0.2-0.2,0.3
	c0,0.1-0.1,0.2-0.1,0.3c0,0.1,0,0.2,0,0.3c0,0.1,0.1,0.2,0.2,0.2c0.1,0.1,0.2,0.1,0.3,0.2c0.1,0.1,0.3,0.1,0.5,0.2
	c0.2,0.1,0.3,0.1,0.4,0.2c0.1,0.1,0.2,0.1,0.2,0.2c0.1,0.1,0.1,0.1,0.1,0.2c0,0.1,0,0.1,0,0.2c0,0.2-0.1,0.3-0.2,0.4
	c-0.1,0.1-0.3,0.1-0.5,0.1c-0.2,0-0.3,0-0.5-0.1c-0.1-0.1-0.3-0.2-0.4-0.3l-0.2,0.3c0.1,0.1,0.3,0.2,0.5,0.3
	c0.2,0.1,0.4,0.1,0.6,0.1c0.2,0,0.3,0,0.5-0.1c0.1,0,0.2-0.1,0.3-0.2c0.1-0.1,0.2-0.2,0.2-0.3C122.6,133.6,122.6,133.5,122.6,133.3
	L122.6,133.3z"/>
<path class="st3" d="M126.1,134.2V131h-0.4l-0.8,1.9c0,0,0,0.1-0.1,0.2c0,0.1,0,0.1-0.1,0.2c0,0.1,0,0.1-0.1,0.2c0,0.1,0,0.1,0,0.1
	c0,0,0-0.1,0-0.1c0-0.1,0-0.1-0.1-0.2c0-0.1,0-0.1-0.1-0.2c0-0.1,0-0.1-0.1-0.2l-0.8-1.9h-0.4v3.2h0.4V132v-0.3c0,0,0,0.1,0,0.1
	c0,0,0,0.1,0,0.1c0,0,0,0.1,0.1,0.1c0,0.1,0,0.1,0.1,0.1l0.9,2.1l0.9-2.1c0,0,0-0.1,0.1-0.1c0,0,0-0.1,0.1-0.1c0,0,0-0.1,0-0.1
	c0,0,0-0.1,0-0.1v0.3v2.2H126.1L126.1,134.2z"/>
<path class="st2" d="M66.9,125.3c-0.6-3.7-2.1-4.6-5.1-5.9c2.3-1.3,3.7-3.3,3.7-6c0-5.4-4.4-7.5-9.2-7.5H43v28.4h13.3
	C61.9,134.3,67.9,131.8,66.9,125.3z M49,111.3h7c4.3,0,4.5,6.1,0.3,6.1H49V111.3z M56.8,128.9H49v-6.5h7.8
	C62.5,122.4,62.1,128.9,56.8,128.9z"/>
<path class="st2" d="M93.5,125.3c-0.6-3.7-2.1-4.6-5.1-5.9c2.3-1.3,3.7-3.3,3.7-6c0-5.4-4.4-7.5-9.2-7.5H69.5v28.4h13.3
	C88.5,134.3,94.5,131.8,93.5,125.3z M75.6,111.3h7c4.3,0,4.5,6.1,0.3,6.1h-7.2V111.3z M83.4,128.9h-7.8v-6.5h7.8
	C89.1,122.4,88.7,128.9,83.4,128.9z"/>
<path class="st2" d="M120.1,125.3c-0.6-3.7-2.1-4.6-5.1-5.9c2.3-1.3,3.7-3.3,3.7-6c0-5.4-4.4-7.5-9.2-7.5H96.1v28.4h13.3
	C115,134.3,121,131.8,120.1,125.3z M102.2,111.3h7c4.3,0,4.5,6.1,0.3,6.1h-7.2V111.3z M109.9,128.9h-7.8v-6.5h7.8
	C115.6,122.4,115.3,128.9,109.9,128.9z"/>
<g>
	<path class="st1" d="M215.1,57.3c-1.6-1.9-4.2-3.6-6.6-4.2c-1-0.3-2.2-0.4-3.5-0.4c-1.8,0-3.4,0.3-4.9,1c-1.5,0.7-2.8,1.6-3.8,2.7
		c-1.1,1.2-1.9,2.6-2.5,4.2c-0.6,1.6-0.9,3.5-0.9,5.4c0,2.1,0.3,3.9,0.9,5.6c0.6,1.6,1.4,3.1,2.4,4.2c1.1,1.2,2.3,2.1,3.8,2.7
		c1.5,0.6,3.1,0.9,4.9,0.9c3.3,0,9.1-1.8,10.7-5l-3.9-3.5c-1.1,1.8-4.6,3.3-6.6,3.3c-1,0-1.9-0.2-2.7-0.6c-0.8-0.4-1.5-1-2.1-1.7
		c-0.6-0.7-1-1.6-1.3-2.6c-0.3-1-0.4-2.1-0.4-3.3c0-1.2,0.1-2.3,0.4-3.3c0.3-1,0.7-1.9,1.3-2.6c0.5-0.7,1.2-1.3,2-1.7
		c0.8-0.4,1.7-0.6,2.7-0.6c2.1,0,5,1.4,6.3,3.2L215.1,57.3L215.1,57.3z"/>
	<polygon class="st1" points="290.1,79.1 290.1,74 276,74 276,67.7 287.4,67.7 287.4,62.7 276,62.7 276,58.2 289.5,58.2 289.5,53.1 
		270.5,53.1 270.5,79.1 290.1,79.1 	"/>
	<path class="st1" d="M315.4,60c-0.7-1.6-1.6-3-2.9-4c-1.2-1-2.6-1.8-4.3-2.2c-1.7-0.5-3.5-0.7-5.4-0.7h-8.6v26h8.2
		c1.7,0,3.5-0.2,5.1-0.7c1.7-0.5,3.2-1.3,4.5-2.3c1.3-1.1,2.4-2.4,3.2-4c0.8-1.6,1.2-3.6,1.2-5.9C316.4,63.7,316.1,61.7,315.4,60z
		 M310.3,69.3c-0.3,1-0.8,1.8-1.5,2.5c-0.7,0.7-1.5,1.2-2.6,1.6c-1.1,0.4-2.3,0.6-3.7,0.6h-2.7V58.1h2.9c2.9,0,5,0.7,6.3,2
		c1.3,1.3,1.9,3.3,1.9,6C310.8,67.3,310.6,68.4,310.3,69.3z"/>
	<polygon class="st1" points="327.2,79.1 327.2,53.1 321.7,53.1 321.7,79.1 327.2,79.1 	"/>
	<polygon class="st1" points="352.7,58.2 352.7,53.1 331.5,53.1 331.5,58.2 339.4,58.2 339.4,79.1 344.9,79.1 344.9,58.2 
		352.7,58.2 	"/>
	<path class="st1" d="M401.1,60c-0.7-1.6-1.6-3-2.9-4c-1.2-1-2.6-1.8-4.3-2.2c-1.7-0.5-3.5-0.7-5.4-0.7H380v26h8.2
		c1.7,0,3.5-0.2,5.1-0.7c1.7-0.5,3.2-1.3,4.5-2.3c1.3-1.1,2.4-2.4,3.2-4c0.8-1.6,1.2-3.6,1.2-5.9C402.2,63.7,401.8,61.7,401.1,60z
		 M396,69.3c-0.3,1-0.8,1.8-1.5,2.5c-0.7,0.7-1.5,1.2-2.6,1.6c-1.1,0.4-2.3,0.6-3.7,0.6h-2.7V58.1h2.9c2.9,0,5,0.7,6.3,2
		c1.3,1.3,1.9,3.3,1.9,6C396.5,67.3,396.4,68.4,396,69.3z"/>
	<polygon class="st1" points="375.9,79.1 375.9,74 361.7,74 361.7,67.7 373.1,67.7 373.1,62.7 361.7,62.7 361.7,58.2 375.3,58.2 
		375.3,53.1 356.3,53.1 356.3,79.1 375.9,79.1 	"/>
	<polygon class="st1" points="330,112.7 330,107.6 315.9,107.6 315.9,101.3 327.3,101.3 327.3,96.2 315.9,96.2 315.9,91.7 
		329.4,91.7 329.4,86.7 310.4,86.7 310.4,112.7 330,112.7 	"/>
	<path class="st1" d="M240.4,57.3c-1.6-1.9-4.2-3.6-6.6-4.2c-1-0.3-2.2-0.4-3.5-0.4c-1.8,0-3.4,0.3-4.9,1c-1.5,0.7-2.8,1.6-3.8,2.7
		c-1.1,1.2-1.9,2.6-2.5,4.2c-0.6,1.6-0.9,3.5-0.9,5.4c0,2.1,0.3,3.9,0.9,5.6c0.6,1.6,1.4,3.1,2.4,4.2c1.1,1.2,2.3,2.1,3.8,2.7
		c1.5,0.6,3.1,0.9,4.9,0.9c3.3,0,9.1-1.8,10.7-5l-3.9-3.5c-1.1,1.8-4.6,3.3-6.6,3.3c-1,0-1.9-0.2-2.7-0.6c-0.8-0.4-1.5-1-2.1-1.7
		c-0.6-0.7-1-1.6-1.3-2.6c-0.3-1-0.4-2.1-0.4-3.3c0-1.2,0.1-2.3,0.4-3.3c0.3-1,0.7-1.9,1.3-2.6c0.5-0.7,1.2-1.3,2-1.7
		c0.8-0.4,1.7-0.6,2.7-0.6c2.1,0,5,1.4,6.3,3.2L240.4,57.3L240.4,57.3z"/>
	<path class="st1" d="M216.9,100.7c-0.7-0.9-1.6-1.6-2.7-2.1c0.9-0.5,1.6-1.2,2.1-2.1c0.5-0.9,0.7-1.9,0.7-3c0-2.2-0.8-3.9-2.3-5.1
		c-1.5-1.2-3.6-1.8-6.2-1.8h-12.2v26h12.1c1.4,0,2.7-0.2,3.9-0.5c1.2-0.4,2.2-0.9,3-1.6c0.8-0.7,1.5-1.6,1.9-2.6
		c0.5-1.1,0.7-2.3,0.7-3.6C218,102.8,217.6,101.6,216.9,100.7z M201.6,91.4h6.8c1.2,0,2,0.2,2.5,0.6c0.5,0.4,0.8,1,0.8,1.9
		c0,0.7-0.2,1.3-0.7,1.8c-0.4,0.5-1.2,0.7-2.3,0.7h-7.1V91.4z M211.6,106.8c-0.6,0.6-1.6,0.9-2.9,0.9h-7.1V101h7.1
		c2.5,0,3.8,1.1,3.8,3.3C212.5,105.4,212.2,106.2,211.6,106.8z"/>
	<path class="st1" d="M243.2,101.2V86.7h-5.3v14.6c0,2.1-0.5,3.8-1.5,4.9c-1,1.2-2.3,1.8-4,1.8s-3-0.6-4-1.8c-1-1.2-1.5-2.9-1.5-5
		V86.7h-5.3v14.6c0,1.9,0.3,3.6,0.8,5.1c0.5,1.5,1.3,2.7,2.2,3.7c0.9,1,2.1,1.8,3.4,2.3c1.3,0.5,2.8,0.8,4.4,0.8c3.4,0,6.1-1,8-3.1
		C242.2,107.9,243.2,105,243.2,101.2L243.2,101.2z"/>
	<path class="st1" d="M267.7,104.8c0-1.4-0.3-2.6-0.8-3.5c-0.5-0.9-1.2-1.7-2.1-2.3c-0.9-0.6-1.8-1.1-2.9-1.4
		c-1.1-0.3-2.1-0.6-3.2-0.9c-1.1-0.2-1.9-0.5-2.6-0.7c-0.7-0.2-1.2-0.4-1.6-0.6c-0.4-0.2-0.7-0.5-0.9-0.8c-0.2-0.3-0.2-0.6-0.2-1.1
		c0-0.3,0.1-0.6,0.2-0.9c0.1-0.3,0.3-0.5,0.6-0.7c0.3-0.2,0.7-0.4,1.2-0.5c0.5-0.1,1.1-0.2,1.8-0.2c1.2,0,2.3,0.2,3.3,0.7
		c1,0.5,1.9,1.1,2.8,2l3.9-3.6c-1.3-1.3-2.7-2.3-4.3-3c-1.6-0.7-3.4-1.1-5.5-1.1c-1.3,0-2.6,0.2-3.7,0.5c-1.2,0.3-2.2,0.8-3,1.5
		c-0.9,0.7-1.5,1.5-2,2.4c-0.5,0.9-0.7,2-0.7,3.2c0,1.3,0.2,2.4,0.6,3.2c0.4,0.9,1,1.6,1.7,2.2c0.7,0.6,1.6,1,2.7,1.4
		c1,0.4,2.2,0.7,3.4,1c1.2,0.3,2.3,0.5,3.1,0.8c0.8,0.2,1.4,0.5,1.8,0.8c0.4,0.3,0.7,0.6,0.9,0.9c0.2,0.3,0.2,0.7,0.2,1.1
		c0,1-0.4,1.7-1.1,2.2c-0.7,0.4-1.9,0.7-3.5,0.7c-1.3,0-2.5-0.2-3.7-0.7c-1.2-0.5-2.2-1.2-3.1-2.3l-3.9,3.3c1,1.5,2.4,2.6,4.3,3.5
		c1.8,0.8,3.9,1.3,6.1,1.3c1.8,0,3.4-0.2,4.7-0.6c1.3-0.4,2.4-1,3.3-1.7c0.9-0.7,1.5-1.6,1.9-2.6C267.5,107.1,267.7,106,267.7,104.8
		L267.7,104.8z"/>
	<polygon class="st1" points="277.4,112.7 277.4,86.7 272,86.7 272,112.7 277.4,112.7 	"/>
	<path class="st1" d="M304.6,112.7v-26h-5.3v11c0,0.4,0,0.8,0,1.4c0,0.5,0,1.1,0,1.7c0,0.5,0,1.1,0,1.5c0,0.5,0,0.8,0,1.1
		c-0.2-0.3-0.5-0.8-0.8-1.4c-0.4-0.6-0.7-1.1-1-1.6L288,86.7h-5.1v26h5.3v-11.4c0-0.4,0-0.8,0-1.4c0-0.5,0-1.1,0-1.6
		c0-0.6,0-1.1,0-1.6c0-0.5,0-0.8,0-1.1c0.2,0.3,0.5,0.8,0.8,1.4c0.4,0.6,0.7,1.1,1,1.6l9.8,14.2H304.6L304.6,112.7z"/>
	<path class="st1" d="M351.8,104.8c0-1.4-0.3-2.6-0.8-3.5c-0.5-0.9-1.2-1.7-2.1-2.3c-0.9-0.6-1.8-1.1-2.9-1.4
		c-1.1-0.3-2.1-0.6-3.2-0.9c-1.1-0.2-1.9-0.5-2.6-0.7c-0.7-0.2-1.2-0.4-1.6-0.6c-0.4-0.2-0.7-0.5-0.9-0.8c-0.2-0.3-0.2-0.6-0.2-1.1
		c0-0.3,0.1-0.6,0.2-0.9c0.1-0.3,0.3-0.5,0.6-0.7c0.3-0.2,0.7-0.4,1.2-0.5c0.5-0.1,1.1-0.2,1.8-0.2c1.2,0,2.3,0.2,3.3,0.7
		s1.9,1.1,2.8,2l3.9-3.6c-1.3-1.3-2.7-2.3-4.3-3c-1.6-0.7-3.4-1.1-5.5-1.1c-1.3,0-2.6,0.2-3.7,0.5c-1.2,0.3-2.2,0.8-3,1.5
		c-0.9,0.7-1.5,1.5-2,2.4c-0.5,0.9-0.7,2-0.7,3.2c0,1.3,0.2,2.4,0.6,3.2c0.4,0.9,1,1.6,1.7,2.2c0.7,0.6,1.6,1,2.7,1.4
		c1,0.4,2.2,0.7,3.4,1c1.2,0.3,2.3,0.5,3.1,0.8c0.8,0.2,1.4,0.5,1.8,0.8c0.4,0.3,0.7,0.6,0.9,0.9c0.2,0.3,0.2,0.7,0.2,1.1
		c0,1-0.4,1.7-1.1,2.2c-0.7,0.4-1.9,0.7-3.5,0.7c-1.3,0-2.5-0.2-3.7-0.7c-1.2-0.5-2.2-1.2-3.1-2.3l-3.9,3.3c1,1.5,2.4,2.6,4.3,3.5
		c1.8,0.8,3.9,1.3,6.1,1.3c1.8,0,3.4-0.2,4.7-0.6c1.3-0.4,2.4-1,3.3-1.7c0.9-0.7,1.5-1.6,1.9-2.6C351.6,107.1,351.8,106,351.8,104.8
		L351.8,104.8z"/>
	<path class="st1" d="M374.8,104.8c0-1.4-0.3-2.6-0.8-3.5c-0.5-0.9-1.2-1.7-2.1-2.3c-0.9-0.6-1.8-1.1-2.9-1.4
		c-1.1-0.3-2.1-0.6-3.2-0.9c-1.1-0.2-1.9-0.5-2.6-0.7c-0.7-0.2-1.2-0.4-1.6-0.6c-0.4-0.2-0.7-0.5-0.9-0.8c-0.2-0.3-0.2-0.6-0.2-1.1
		c0-0.3,0.1-0.6,0.2-0.9c0.1-0.3,0.3-0.5,0.6-0.7c0.3-0.2,0.7-0.4,1.2-0.5c0.5-0.1,1.1-0.2,1.8-0.2c1.2,0,2.3,0.2,3.3,0.7
		c1,0.5,1.9,1.1,2.8,2l3.9-3.6c-1.3-1.3-2.7-2.3-4.3-3c-1.6-0.7-3.4-1.1-5.5-1.1c-1.3,0-2.6,0.2-3.7,0.5c-1.2,0.3-2.2,0.8-3,1.5
		c-0.9,0.7-1.5,1.5-2,2.4c-0.5,0.9-0.7,2-0.7,3.2c0,1.3,0.2,2.4,0.6,3.2c0.4,0.9,1,1.6,1.7,2.2c0.7,0.6,1.6,1,2.7,1.4
		c1,0.4,2.2,0.7,3.4,1c1.2,0.3,2.3,0.5,3,0.8c0.8,0.2,1.4,0.5,1.8,0.8c0.4,0.3,0.7,0.6,0.9,0.9c0.2,0.3,0.2,0.7,0.2,1.1
		c0,1-0.4,1.7-1.1,2.2c-0.7,0.4-1.9,0.7-3.5,0.7c-1.3,0-2.5-0.2-3.7-0.7c-1.2-0.5-2.2-1.2-3.1-2.3l-3.9,3.3c1,1.5,2.4,2.6,4.3,3.5
		c1.8,0.8,3.9,1.3,6.1,1.3c1.8,0,3.4-0.2,4.7-0.6c1.3-0.4,2.4-1,3.3-1.7c0.9-0.7,1.5-1.6,1.9-2.6C374.6,107.1,374.8,106,374.8,104.8
		L374.8,104.8z"/>
	<path class="st1" d="M181.5,53.1h-5.3l-10.5,26h5.9l2.2-5.8h10l2.2,5.8h6L181.5,53.1z M175.6,68.3l1.8-4.7c0.3-0.8,0.6-1.5,0.8-2.2
		c0.2-0.7,0.4-1.3,0.6-1.8c0.1,0.5,0.3,1.1,0.6,1.8c0.2,0.7,0.5,1.5,0.8,2.2l1.8,4.7H175.6z"/>
	<path class="st1" d="M261,69.2c1.7-0.6,3.7-1.8,4.6-3.1c0.9-1.3,1.3-2.9,1.3-4.8c0-1.4-0.2-2.6-0.7-3.6c-0.5-1-1.2-1.9-2-2.6
		c-0.9-0.7-1.9-1.2-3-1.5c-1.1-0.3-2.4-0.5-3.6-0.5h-12.8v26h5.5v-9.4l4.9,0.2l5.7,9.1h6.3L261,69.2z M257.3,64.8h-7.2v-6.7h7.2
		c1.2,0,2.2,0.3,2.9,0.8c0.7,0.5,1,1.4,1,2.5C261.2,63.7,259.9,64.8,257.3,64.8z"/>
</g>
</svg>
